HIERARCHY
ROOT Hips
{
	OFFSET -0.001795 -0.223333 0.028219
	CHANNELS 6 Xposition Yposition Zposition Zrotation Yrotation Xrotation 
	JOINT LeftUpLeg
	{
		OFFSET 0.069520 -0.091406 -0.006815
		CHANNELS 3 Zrotation Yrotation Xrotation
		JOINT LeftLeg
		{
			OFFSET 0.034277 -0.375199 -0.004496
			CHANNELS 3 Zrotation Yrotation Xrotation
			JOINT LeftFoot
			{
				OFFSET -0.013596 -0.397961 -0.043693
				CHANNELS 3 Zrotation Yrotation Xrotation
				JOINT LeftToe
				{
					OFFSET 0.026358 -0.055791 0.119288
					CHANNELS 3 Zrotation Yrotation Xrotation
					End Site
					{
						OFFSET 0.000000 0.000000 0.000000
					}
				}
			}
		}
	}
	JOINT RightUpLeg
	{
		OFFSET -0.067670 -0.090522 -0.004320
		CHANNELS 3 Zrotation Yrotation Xrotation
		JOINT RightLeg
		{
			OFFSET -0.038290 -0.382569 -0.008850
			CHANNELS 3 Zrotation Yrotation Xrotation
			JOINT RightFoot
			{
				OFFSET 0.015774 -0.398415 -0.042312
				CHANNELS 3 Zrotation Yrotation Xrotation
				JOINT RightToe
				{
					OFFSET -0.025372 -0.048144 0.123348
					CHANNELS 3 Zrotation Yrotation Xrotation
					End Site
					{
						OFFSET 0.000000 0.000000 0.000000
					}
				}
			}
		}
	}
	JOINT Spine
	{
		OFFSET -0.002533 0.108963 -0.026696
		CHANNELS 3 Zrotation Yrotation Xrotation
		JOINT Spine1
		{
			OFFSET 0.005487 0.135180 0.001092
			CHANNELS 3 Zrotation Yrotation Xrotation
			JOINT Spine2
			{
				OFFSET 0.001457 0.052922 0.025425
				CHANNELS 3 Zrotation Yrotation Xrotation
				JOINT Neck
				{
					OFFSET -0.002778 0.213870 -0.042857
					CHANNELS 3 Zrotation Yrotation Xrotation
					JOINT Head
					{
						OFFSET 0.005152 0.064970 0.051349
						CHANNELS 3 Zrotation Yrotation Xrotation
						End Site
						{
							OFFSET 0.000000 0.000000 0.000000
						}
					}
				}
				JOINT LeftShoulder
				{
					OFFSET 0.078845 0.121749 -0.034090
					CHANNELS 3 Zrotation Yrotation Xrotation
					JOINT LeftArm
					{
						OFFSET 0.090977 0.030469 -0.008868
						CHANNELS 3 Zrotation Yrotation Xrotation
						JOINT LeftForeArm
						{
							OFFSET 0.259612 -0.012772 -0.027456
							CHANNELS 3 Zrotation Yrotation Xrotation
							JOINT LeftHand
							{
								OFFSET 0.249234 0.008986 -0.001171
								CHANNELS 3 Zrotation Yrotation Xrotation
								End Site
								{
									OFFSET 0.000000 0.000000 0.000000
								}
							}
						}
					}
				}
				JOINT RightShoulder
				{
					OFFSET -0.081759 0.118833 -0.038615
					CHANNELS 3 Zrotation Yrotation Xrotation
					JOINT RightArm
					{
						OFFSET -0.096012 0.032551 -0.009143
						CHANNELS 3 Zrotation Yrotation Xrotation
						JOINT RightForeArm
						{
							OFFSET -0.253742 -0.013329 -0.021401
							CHANNELS 3 Zrotation Yrotation Xrotation
							JOINT RightHand
							{
								OFFSET -0.255298 0.007772 -0.005559
								CHANNELS 3 Zrotation Yrotation Xrotation
								End Site
								{
									OFFSET 0.000000 0.000000 0.000000
								}
							}
						}
					}
				}
			}
		}
	}
}
MOTION
Frames: 11
Frame Time: 0.050000
-0.807938 0.773543 0.825975 -2.469321 -2.059923 10.409688 7.380302 -0.784934 -29.931641 6.729141 -7.643082 71.270928 10.248735 -13.813616 -53.160666 0.000000 0.000000 0.000000 5.602585 6.161323 -39.720288 -4.610227 9.486034 75.936870 -5.376038 2.212914 -29.059041 0.000000 0.000000 0.000000 -0.063013 -1.346545 38.178619 -3.599934 1.625735 -2.501843 -6.346613 6.954148 3.240115 13.358062 -2.355189 -33.453269 0.000000 0.000000 0.000000 -21.621257 -23.582085 9.229411 -38.329514 -11.871266 -0.190623 21.305165 -42.448969 -7.287314 0.000000 0.000000 0.000000 18.585217 17.340411 10.193791 46.754785 19.177376 2.386963 -52.789361 59.433086 -25.704727 0.000000 0.000000 0.000000 
-0.807775 0.770087 0.825238 -2.994565 -2.311915 11.694741 7.670248 -0.693953 -29.026818 6.850886 -7.561891 71.487765 9.372213 -12.446657 -50.174939 0.000000 0.000000 0.000000 5.563053 6.226772 -40.040022 -3.964011 9.129131 76.626884 -6.133829 2.150936 -32.733326 0.000000 0.000000 0.000000 -0.165089 -1.261483 37.722500 -3.497572 1.568471 -2.757400 -6.793411 7.070062 2.772637 13.711725 -2.609114 -32.601686 0.000000 0.000000 0.000000 -21.124809 -23.037505 8.846340 -37.610799 -11.207216 -0.346554 18.587849 -43.309709 -6.347035 0.000000 0.000000 0.000000 19.149766 16.735625 10.027731 46.745510 19.121860 2.380028 -53.556477 61.523155 -27.274927 0.000000 0.000000 0.000000 
-0.807822 0.765709 0.824398 -3.552720 -2.800402 12.822016 8.306641 -0.512050 -28.333515 6.841786 -7.317708 72.376247 7.698697 -13.157151 -44.481609 0.000000 0.000000 0.000000 5.752525 6.317823 -39.903918 -3.241435 8.790520 77.143588 -6.440098 1.033906 -33.700800 0.000000 0.000000 0.000000 -0.636033 -1.005907 37.376599 -3.295398 1.471005 -2.895872 -6.981610 7.624118 2.402533 14.106207 -2.826412 -31.961736 0.000000 0.000000 0.000000 -20.467938 -22.703106 8.492980 -37.156350 -10.522647 -0.492596 17.172914 -44.618028 -6.021850 0.000000 0.000000 0.000000 19.648222 16.490076 10.137336 46.213748 19.289222 2.376761 -54.727771 62.986508 -28.745828 0.000000 0.000000 0.000000 
-0.807891 0.759587 0.823093 -4.504567 -3.102986 14.000401 9.329062 -0.277613 -27.391136 6.990223 -7.241365 73.099279 3.141958 -16.321298 -30.737891 0.000000 0.000000 0.000000 5.965908 6.410574 -39.865544 -2.477860 8.356003 77.869035 -6.408227 1.134062 -33.529644 0.000000 0.000000 0.000000 -0.372860 -1.066646 37.249353 -3.201133 1.409219 -3.885341 -7.198443 8.177096 2.529571 14.475624 -3.060948 -31.285503 0.000000 0.000000 0.000000 -20.132373 -22.355268 8.166650 -36.285895 -9.401641 -0.762660 14.764811 -47.466687 -5.435915 0.000000 0.000000 0.000000 19.608370 16.348538 10.218963 45.364277 18.405198 1.939165 -55.613428 65.730545 -30.872576 0.000000 0.000000 0.000000 
-0.808003 0.748782 0.822085 -5.068643 -3.206726 15.456044 10.145607 -0.135058 -26.504300 6.412743 -6.636122 74.434307 -5.241668 -19.002675 -8.634024 0.000000 0.000000 0.000000 6.049921 6.486674 -40.157249 -1.731014 7.974305 79.638321 -5.832406 0.365762 -30.151551 0.000000 0.000000 0.000000 -0.059353 -1.172925 37.037957 -2.973516 1.294291 -4.894238 -7.640274 8.603124 2.617247 14.776009 -3.128074 -31.221832 0.000000 0.000000 0.000000 -19.110051 -22.404123 8.056805 -36.310733 -8.794501 -0.915127 14.908532 -50.418180 -5.984824 0.000000 0.000000 0.000000 19.438333 16.221974 10.306989 45.595937 18.386399 1.953837 -55.858096 68.205725 -32.384451 0.000000 0.000000 0.000000 
-0.808089 0.733308 0.822207 -5.754200 -2.326697 17.027726 10.920114 -0.124395 -25.028416 6.361001 -6.880260 74.624479 -10.485216 -19.650417 3.898234 0.000000 0.000000 0.000000 5.735294 6.137282 -39.582333 -1.035163 7.046576 81.335338 -4.729485 0.578948 -24.645937 0.000000 0.000000 0.000000 0.883901 -1.660707 36.629050 -2.897381 1.256397 -5.001662 -8.253050 8.961330 1.783730 15.535023 -3.642741 -29.635434 0.000000 0.000000 0.000000 -18.957481 -23.027024 8.161197 -34.431970 -7.831872 -0.981357 14.986802 -55.117824 -6.798469 0.000000 0.000000 0.000000 20.602364 16.190640 10.861628 44.312682 17.377674 1.429230 -56.848653 70.976690 -34.712441 0.000000 0.000000 0.000000 
-0.808271 0.714251 0.823329 -6.265421 -1.773596 18.243532 11.788252 -0.136752 -22.002571 5.836465 -6.407116 74.147118 -11.596260 -22.022973 3.884113 0.000000 0.000000 0.000000 5.584331 5.849973 -38.758190 -0.876488 6.905618 83.660671 -3.157320 2.311295 -18.460444 0.000000 0.000000 0.000000 1.219258 -1.867973 36.403131 -2.721788 1.175946 -5.809435 -8.834536 9.509875 1.975421 16.311397 -3.995551 -29.135632 0.000000 0.000000 0.000000 -17.958953 -23.598144 8.237540 -33.775702 -7.435480 -1.021833 15.752846 -60.324782 -8.235048 0.000000 0.000000 0.000000 22.125432 15.497925 11.113299 43.573296 16.594157 0.947641 -57.618751 74.581021 -37.452277 0.000000 0.000000 0.000000 
-0.808744 0.692996 0.824272 -6.378410 -0.455421 19.982800 12.550823 -0.242237 -19.859641 5.278194 -6.224741 73.024933 -11.311250 -23.490188 1.817638 0.000000 0.000000 0.000000 5.236158 5.322139 -37.344034 -1.077370 6.526976 85.031618 -2.635283 4.962853 -18.656906 0.000000 0.000000 0.000000 1.774573 -2.224599 35.448302 -2.958310 1.256939 -6.652666 -8.989795 9.733779 2.375327 16.934536 -4.242087 -28.872572 0.000000 0.000000 0.000000 -16.955401 -24.012446 8.289240 -31.942522 -7.814144 -0.876009 15.918978 -66.833727 -9.616838 0.000000 0.000000 0.000000 23.391046 14.953184 11.395558 42.105955 16.237485 0.573812 -57.345992 77.344770 -38.899644 0.000000 0.000000 0.000000 
-0.809423 0.672852 0.823927 -6.340526 0.807631 21.967801 13.375314 -0.346474 -18.525968 4.203010 -5.599802 72.767372 -11.314610 -24.049078 1.392292 0.000000 0.000000 0.000000 4.950525 4.888635 -36.161981 -2.036609 6.927379 85.697480 -1.731946 8.697449 -18.134323 0.000000 0.000000 0.000000 1.643261 -2.307237 34.896860 -2.409263 1.051878 -6.936098 -9.784496 10.187643 1.649954 18.108372 -4.912754 -27.536493 0.000000 0.000000 0.000000 -15.671216 -24.980806 8.484184 -30.665592 -9.115143 -0.471786 19.503926 -72.220839 -13.554188 0.000000 0.000000 0.000000 24.238741 14.884584 12.077669 41.021489 16.671149 0.567506 -57.043943 78.774484 -39.297255 0.000000 0.000000 0.000000 
-0.809904 0.656111 0.822052 -6.783869 1.495473 24.026770 13.798809 -0.408753 -18.769527 3.450036 -5.085248 73.837523 -11.189888 -23.660953 1.604953 0.000000 0.000000 0.000000 4.860349 4.477398 -34.126764 -2.804088 7.328996 84.967763 -1.151883 11.827947 -18.316067 0.000000 0.000000 0.000000 1.959691 -2.578354 35.516380 -3.022340 1.253922 -8.828254 -9.832225 10.840360 2.006403 18.976762 -5.270424 -27.186864 0.000000 0.000000 0.000000 -14.167841 -26.239417 8.958310 -28.506515 -10.985446 -0.104421 28.425680 -76.930186 -22.061427 0.000000 0.000000 0.000000 23.207529 15.371596 12.599609 39.775006 18.211131 0.939099 -60.934216 78.866123 -42.310396 0.000000 0.000000 0.000000 
-0.809928 0.642824 0.819297 -6.917185 1.887666 26.528158 13.778837 -0.518406 -19.104578 2.380302 -4.090389 74.953372 -10.465245 -23.438563 0.352628 0.000000 0.000000 0.000000 4.063939 4.113646 -33.222904 -3.476544 7.623723 83.717993 0.095296 16.409963 -17.243498 0.000000 0.000000 0.000000 1.138423 -2.347012 36.232224 -2.451056 1.055648 -10.042417 -10.297140 11.709161 1.757681 20.993900 -5.752737 -27.995408 0.000000 0.000000 0.000000 -12.436432 -28.256970 9.768093 -25.611508 -12.567490 0.119667 44.002404 -79.196311 -36.239976 0.000000 0.000000 0.000000 22.998773 15.927780 13.476148 37.166358 19.658347 1.101425 -61.604048 78.489515 -42.337084 0.000000 0.000000 0.000000 
